PathFileType	4	(X/Y/Z)	Patient4_TMGait_0pt8_01_right_18.trc.trc
DataRate	CameraRate	NumFrames	NumMarkers	Units	OrigDataRate	OrigDataStartFrame	OrigNumFrames
87.500000000000	87.500000000000	6	33	mm	87.500000000000	18	       141
Frame#	Time	Sacral			L.Shoulder			Chest			R.Shoulder			Neck			R.ASIS			L.ASIS			R.Thigh.Superior			R.Thigh.Lateral			R.Thigh.Inferior			R.Patella			L.Thigh.Superior			L.Thigh.Lateral			L.Thigh.Inferior			L.Patella			L.Shank.Superior			L.Shank.Lateral			L.Shank.Inferior			R.Shank.Superior			R.Shank.Lateral			R.Shank.Inferior			R.Heel			R.Midfoot.Superior			R.Midfoot.Lateral			R.Toe			L.Heel			L.Midfoot.Lateral			L.Midfoot.Superior			L.Toe			L.Elbow			L.Wrist			R.Elbow			R.Wrist			
		X1	Y1	Z1	X2	Y2	Z2	X3	Y3	Z3	X4	Y4	Z4	X5	Y5	Z5	X6	Y6	Z6	X7	Y7	Z7	X8	Y8	Z8	X9	Y9	Z9	X10	Y10	Z10	X11	Y11	Z11	X12	Y12	Z12	X13	Y13	Z13	X14	Y14	Z14	X15	Y15	Z15	X16	Y16	Z16	X17	Y17	Z17	X18	Y18	Z18	X19	Y19	Z19	X20	Y20	Z20	X21	Y21	Z21	X22	Y22	Z22	X23	Y23	Z23	X24	Y24	Z24	X25	Y25	Z25	X26	Y26	Z26	X27	Y27	Z27	X28	Y28	Z28	X29	Y29	Z29	X30	Y30	Z30	X31	Y31	Z31	X32	Y32	Z32	X33	Y33	Z33	

18	20.174285714286	912.449492200076	997.935948496864	400.753514381785	1114.933574881474	1434.003994129825	253.333340394522	1189.892378439674	1359.947813472690	426.795400661739	1076.946694572965	1426.079835029232	587.063564497845	1069.943915419166	1488.073051653471	406.761290730266	1127.362736607820	939.273644360677	544.499622956004	1141.778682233827	957.547167669113	268.832451129039	1210.444660917731	773.068137627848	518.743658658360	1174.067484410026	651.850642622843	597.136433698852	1265.659392180438	616.200512625754	519.601660960647	1304.691717708367	534.507322626927	543.595926074541	1136.756693694189	726.318472943238	298.350731800743	1019.315747575677	633.599728573924	230.851678727809	1072.800566989933	539.522476641955	299.521916372547	1055.597714750302	474.579345236731	309.222743938187	1022.485962585147	408.533408010474	301.662719310902	922.887449420754	303.762170888644	250.057781105516	957.761517849456	189.241231979717	325.852663850919	1287.881394532651	445.185899491877	554.996998286361	1232.681544031299	332.207455106466	618.403143310682	1304.670263804936	245.550263192255	571.749946228477	1215.366725505373	56.840337765434	540.536398102718	1374.738422927419	132.597724814709	591.641616997569	1294.212267978312	56.611595269617	620.614279902615	1496.779266640519	96.288113926925	627.598608811188	817.620022425273	40.046586649843	370.979856041160	891.307518654806	35.692024184757	290.714634530594	975.351657424716	95.784066344140	317.637453228365	1103.302112038058	41.634912939629	289.314457914854	1224.987758705003	1125.473825733004	96.858251342733	1477.899883523998	1111.033523431149	145.439509638103	909.606364094761	1120.448024099237	672.903220278288	852.454713946808	866.592286546530	684.037177040080	
19	20.185714285714	913.860485552739	995.593907738745	402.460298817342	1115.292519294142	1431.989043231459	255.133750272696	1190.128280876468	1358.341410646293	428.774294417908	1076.715818491471	1424.560065984340	588.653541882344	1069.862849029535	1485.983073511045	408.377632212279	1128.939568920845	937.037752061690	546.628331127794	1143.362987221032	955.671656820537	270.960292159011	1210.451359873470	769.057745067971	520.766262485497	1172.276603025292	647.790967699955	598.500982271095	1263.731067994513	611.810670150012	520.995326835726	1301.869449079544	531.268976581703	544.007059408171	1135.714434227668	724.038986590053	299.717129878075	1017.036685583752	632.664072558364	231.905548777122	1069.171731715927	537.925805650600	300.670165660877	1051.148852152559	472.911545658172	310.166223566452	1017.167243709940	407.268665934628	302.468440568187	916.351368049798	303.791967050085	250.579636572617	949.824851055536	188.727912734454	326.116975748579	1287.292363759846	442.072459116605	555.441981362003	1234.449500617939	327.440771292276	618.003092558990	1309.037138070849	242.784201504042	571.315126317709	1224.666333426445	51.959648626221	539.398751665734	1382.283599982929	131.153847644390	590.457696242340	1303.610112154814	53.365993724431	619.401436253756	1505.414528209393	97.727085181156	626.216849028463	808.432771370849	40.183078885288	370.881460289784	882.155447958487	35.739157944160	290.701129986203	966.237979278348	95.713974736369	317.684264568989	1094.129085878753	41.373689876849	289.257700920426	1227.557187522109	1125.364770659552	97.744667886869	1479.846232817572	1122.680795554468	148.317049973154	903.580543500657	1123.240315114756	673.437435663474	841.686967161976	870.433570933108	683.444330722380	
20	20.197142857143	915.408637335356	993.139714057090	404.540015585656	1115.513390848377	1429.838474995901	256.996077173575	1190.374170643560	1356.727707172207	430.804469043063	1076.538101121827	1422.984227003972	590.356902925634	1069.780761204267	1483.816152915088	410.081709818905	1130.721995674576	934.688677716250	548.924735705628	1145.015842037210	953.694569380390	273.281522785045	1211.044755314806	765.271535381694	523.011595761248	1170.917163481457	643.715783584237	599.640909207584	1262.533785041926	607.713810457748	522.473916231842	1299.546502463886	527.809099837682	544.320403557835	1135.108507001456	721.724464977073	301.224778931996	1015.305086761993	631.589872659913	233.192371857104	1066.243982053305	536.209797095564	302.000547067285	1047.440164775313	471.024801095283	311.316159832906	1012.507424216109	405.811880491843	303.428925765471	910.259626523806	303.824550105803	251.220774425082	942.093206053571	188.151393085503	326.433562574856	1286.512452684875	438.589703755143	555.661826535515	1234.913424121004	322.857255876122	617.124942327339	1311.259377551026	239.643251034148	570.448244561487	1229.986140141413	48.079531330816	537.673372502041	1386.456094184690	128.886072273708	588.713341275608	1308.845900770826	50.409657043105	617.709530768501	1510.155259283207	97.068531135504	624.524781332636	799.234699211618	40.414218045987	370.730150790822	873.025443449131	35.807861425654	290.658539717469	957.169451436338	95.661038043271	317.715517254787	1084.993808431357	41.076096567746	289.182223448638	1229.676567272726	1124.890423358035	98.749300662028	1480.848114035983	1133.098125955032	151.195404905039	898.574618348585	1125.441157742996	674.109370669214	832.571432246753	873.573900595533	683.009095198183	
21	20.208571428571	917.070701365718	990.646043154743	406.989898546060	1115.614022378092	1427.609893755989	258.926418162002	1190.650855439593	1355.148799243819	432.887299672002	1076.442473773472	1421.383166109146	592.190197817828	1069.727060831751	1481.634979939800	411.885470549252	1132.690492512591	932.298690053483	551.369788516400	1146.715014638218	951.671677472881	275.769595610815	1212.234250949224	761.794758468692	525.460415189549	1169.998353441039	639.733868071328	600.543370346125	1262.087219152513	604.012427346498	524.033031211461	1297.787601292720	524.236362843472	544.540204397226	1134.967167908617	719.426302960550	302.850513820964	1014.146595432030	630.397488849128	234.724154197954	1064.098528336784	534.387074557003	303.485927777427	1044.575205309573	468.909745012558	312.632749509913	1008.567896569090	404.169646741563	304.521162542436	904.643670964037	303.901774611797	251.977458054881	934.592825382435	187.542160758797	326.775168657384	1285.635736220112	434.844596217653	555.675319119028	1234.280738452135	318.505904041618	615.921782760625	1311.548509154966	236.146167287337	569.250622662331	1231.509770948528	45.113924452013	535.584782905009	1387.525100572675	125.773542660029	586.541475113410	1310.171331581277	47.698093673483	615.740830630110	1511.341843144694	94.298372423180	622.614107052817	790.026518875995	40.812967723678	370.514242777905	863.918817087354	35.919062464160	290.577559124058	948.172398035121	95.636039827191	317.704919395169	1075.904374460170	40.749822021391	289.085882638498	1231.297636661183	1124.045896164554	99.893298532398	1480.998267309058	1142.200014409686	154.056828231546	894.698889087827	1126.933156385369	674.940902074400	825.151793836014	875.907040972178	682.783858935172	
22	20.220000000000	918.817828273063	988.195357738396	409.783959390080	1115.622001370631	1425.374058772313	260.930743565173	1190.983011618971	1353.652173739662	435.024565813508	1076.464375361328	1419.800690241070	594.168283346118	1069.734993513332	1479.514825078989	413.800135874910	1134.818664821383	929.960015681802	553.941632681694	1148.439505271437	949.669268003095	278.396064454403	1213.988417088132	758.697023860739	528.084943942603	1169.520177676946	635.977155223980	601.247876221393	1262.355383876703	600.787690063260	525.671055332998	1296.612884464273	520.674926437429	544.698498878222	1135.298521781542	717.206753110751	304.576223889286	1013.573318496571	629.118340994564	236.503980165237	1062.802306631136	532.484125107531	305.095061894242	1042.645070112998	466.570931095983	314.058181996593	1005.387626836016	402.364640497286	305.712366614645	899.527844644020	304.083367782581	252.842050758392	927.355785249962	186.950455951975	327.105818346558	1284.748969450335	430.982597131112	555.534693026674	1232.818998159043	314.466599067919	614.591386592167	1310.204047401014	232.390912107543	567.854966944799	1229.634171041469	42.979273111893	533.378876406985	1385.896863147196	121.940106266999	584.117520778900	1308.054049723286	45.231566889062	613.706077578313	1509.470198340730	89.649378196328	620.574942476764	780.818301384263	41.479363829925	370.224638720702	854.838771371829	36.107868841626	290.450780776075	939.284420561929	95.651795194365	317.620139309310	1066.866208965198	40.407359329201	288.968274314597	1232.366382595192	1122.830663214420	101.205377865270	1480.387077702282	1149.916458390802	156.886756611726	892.044534229504	1127.637469210052	675.959033461078	819.486603812020	877.357376087968	682.817199539011	
23	20.231428571429	920.617487279819	985.876099743585	412.875442198850	1115.571401507185	1423.213244354446	263.013377093261	1191.395157991419	1352.290465365582	437.217162205490	1076.640579466672	1418.293357821433	596.301533277942	1069.837574210408	1477.540707258825	415.834062519550	1137.072077759260	927.780010549232	556.617948768561	1150.168113000483	947.760415334784	281.133783669994	1216.236405534329	756.037630624056	530.848092871321	1169.481426996861	632.595793240772	601.843401546037	1263.251618302126	598.099163938589	527.386217333423	1295.999656672360	517.261235100738	544.857999546084	1136.093894335848	715.136804242361	306.394268924232	1013.593357440303	627.790876643297	238.525874432516	1062.415325068412	530.540609521528	306.797143804067	1041.733053522258	464.028020972829	315.523090961796	1002.993772715216	400.434493518734	306.962481574544	894.940491479866	304.445303310902	253.804225133982	920.426983828586	186.446110009040	327.384531705081	1283.922795085248	427.176858454026	555.324552182783	1230.818688103388	310.841804223069	613.353485467515	1307.574356640984	228.539776930165	566.413078886240	1224.919982548596	41.584832843867	531.288507158876	1382.059124390648	117.635615377759	581.644515649411	1303.114554920731	43.042191773778	611.801005223290	1505.127368835977	83.578118337093	618.509665357140	771.635488404438	42.543094148796	369.855919285026	845.793657744334	36.429036090526	290.273858178846	930.556800423624	95.723757025614	317.425495225743	1057.880611432517	40.063755241509	288.831866853933	1232.824694408472	1121.251692208705	102.720849910021	1479.099732011518	1156.191074703932	159.673693511837	890.678745736036	1127.521480342994	677.192787530982	815.646475294338	877.882687161171	683.154253490168	
